<svg width="159" height="38" fill="none" xmlns="http://www.w3.org/2000/svg"><path d="M10.808 3.098c4.036 0 7.16 1.12 9.374 3.36 2.213 2.213 3.32 5.39 3.32 9.53 0 4.114-1.107 7.291-3.32 9.53-2.213 2.24-5.338 3.36-9.374 3.36H.848V3.098h9.96zm-.274 21.483c2.448 0 4.284-.73 5.508-2.187 1.25-1.485 1.875-3.62 1.875-6.406 0-2.787-.625-4.909-1.875-6.367-1.224-1.484-3.06-2.226-5.508-2.226H6.238V24.58h4.296zM30.956 6.535c-1.12 0-1.953-.234-2.5-.703-.547-.495-.82-1.21-.82-2.148 0-.964.273-1.68.82-2.148.547-.495 1.38-.743 2.5-.743s1.953.248 2.5.743c.546.468.82 1.184.82 2.148 0 .937-.274 1.653-.82 2.148-.547.469-1.38.703-2.5.703zm2.656 2.813v19.53H28.26V9.348h5.352zM57.29 4.699l.625 3.828h-.352a1.452 1.452 0 00-.351-.039c-1.172 0-2.07.274-2.695.82-.6.521-.899 1.25-.899 2.188l-2.187-.899c0-1.041.208-2.005.625-2.89a5.195 5.195 0 011.836-2.187c.833-.547 1.823-.82 2.968-.82H57.291zm-6.406 20.507c2.11 0 3.737.456 4.883 1.367 1.145.911 1.718 2.187 1.718 3.828 0 1.484-.43 2.734-1.289 3.75-.859 1.041-2.07 1.822-3.632 2.343-1.537.521-3.32.782-5.351.782-3.36 0-5.82-.47-7.383-1.407-1.536-.937-2.304-2.161-2.304-3.671 0-1.068.403-1.966 1.21-2.695.834-.73 2.2-1.133 4.102-1.211l-.195.625c-1.355-.235-2.396-.677-3.125-1.328-.703-.677-1.055-1.602-1.055-2.774 0-1.198.456-2.174 1.367-2.93.938-.78 2.2-1.236 3.789-1.366l2.344 1.093h-.547c-1.12.079-1.914.313-2.383.704-.443.364-.664.78-.664 1.25 0 .546.208.963.625 1.25.443.26 1.068.39 1.875.39h6.015zm-3.632 8.398c1.354 0 2.46-.117 3.32-.352.885-.234 1.536-.534 1.953-.898.442-.365.664-.768.664-1.211a1.48 1.48 0 00-.586-1.21c-.39-.287-1.094-.43-2.11-.43h-6.6c-.626 0-1.146.156-1.563.468-.39.313-.586.742-.586 1.29 0 .728.482 1.301 1.445 1.718.99.416 2.344.625 4.063.625zm.039-24.647c1.822 0 3.398.273 4.726.82 1.354.521 2.383 1.276 3.086 2.266.729.99 1.093 2.174 1.093 3.554 0 1.354-.364 2.526-1.093 3.516-.703.99-1.732 1.757-3.086 2.304-1.328.52-2.904.781-4.726.781-2.89 0-5.104-.586-6.64-1.757-1.537-1.198-2.305-2.813-2.305-4.844 0-1.38.364-2.565 1.094-3.554.729-.99 1.757-1.745 3.085-2.266 1.328-.547 2.917-.82 4.766-.82zm0 3.36c-1.042 0-1.901.286-2.578.858-.677.573-1.016 1.367-1.016 2.383s.339 1.823 1.016 2.422c.677.573 1.536.86 2.578.86 1.041 0 1.887-.287 2.538-.86.678-.6 1.016-1.406 1.016-2.422 0-1.015-.338-1.81-1.015-2.383-.652-.572-1.498-.859-2.54-.859zm16.125-5.782c-1.12 0-1.953-.234-2.5-.703-.547-.495-.82-1.21-.82-2.148 0-.964.273-1.68.82-2.148.547-.495 1.38-.743 2.5-.743s1.953.248 2.5.743c.546.468.82 1.184.82 2.148 0 .937-.274 1.653-.82 2.148-.547.469-1.38.703-2.5.703zm2.656 2.813v19.53h-5.351V9.348h5.35z" fill="#FF5300"/><path d="M80.807 29.268c-2.057 0-3.854-.404-5.39-1.21a8.53 8.53 0 01-3.515-3.477c-.834-1.51-1.25-3.333-1.25-5.468 0-2.136.416-3.958 1.25-5.469.833-1.51 1.992-2.669 3.476-3.476 1.51-.807 3.229-1.211 5.156-1.211 1.979 0 3.658.404 5.039 1.21a7.902 7.902 0 013.163 3.243c.73 1.354 1.094 2.903 1.094 4.648 0 .52-.013 1.015-.039 1.484-.026.469-.065.886-.117 1.25H74.089v-3.71H87.33l-2.578.937c0-1.64-.377-2.904-1.132-3.789-.73-.885-1.771-1.328-3.125-1.328-.99 0-1.85.234-2.578.703-.703.469-1.237 1.172-1.602 2.11-.364.91-.546 2.07-.546 3.476 0 1.38.195 2.526.585 3.437.417.885.99 1.55 1.719 1.992.755.443 1.654.664 2.695.664 1.146 0 2.07-.221 2.773-.664a4.491 4.491 0 001.641-1.836l4.257 1.64a6.754 6.754 0 01-1.913 2.618c-.834.729-1.836 1.289-3.008 1.68-1.146.364-2.383.546-3.71.546zm13.558-.39V9.348h4.804l.313 5.859-.664-.625c.312-1.276.807-2.318 1.484-3.125a6.408 6.408 0 012.461-1.875c.989-.417 2.07-.625 3.242-.625 1.354 0 2.552.26 3.593.781 1.068.521 1.901 1.315 2.5 2.383.625 1.041.938 2.356.938 3.945v12.812h-5.352V17.589c0-1.666-.325-2.812-.976-3.437-.651-.651-1.497-.977-2.539-.977-.729 0-1.445.183-2.148.547-.677.339-1.237.899-1.68 1.68-.416.781-.625 1.823-.625 3.125v10.35h-5.351zm33.05-19.921c1.745 0 3.216.26 4.414.781 1.224.495 2.2 1.185 2.93 2.07a7.542 7.542 0 011.601 2.89l-5 1.797c-.26-1.171-.703-2.057-1.328-2.656-.625-.598-1.471-.898-2.539-.898-.989 0-1.835.234-2.539.703-.703.443-1.236 1.133-1.601 2.07-.365.912-.547 2.057-.547 3.438 0 1.38.182 2.525.547 3.437.391.911.937 1.588 1.641 2.031.729.443 1.575.664 2.538.664.782 0 1.446-.13 1.993-.39.546-.287.989-.69 1.328-1.211.364-.521.611-1.146.742-1.875l4.843 1.562a7.158 7.158 0 01-1.601 3.086c-.782.885-1.784 1.575-3.008 2.07-1.224.495-2.643.742-4.257.742-2.006 0-3.776-.404-5.313-1.21a8.473 8.473 0 01-3.554-3.477c-.833-1.51-1.25-3.333-1.25-5.468 0-2.136.417-3.958 1.25-5.469a8.53 8.53 0 013.515-3.476c1.511-.807 3.242-1.211 5.195-1.211zm31.044.39l-7.891 20.741c-.625 1.771-1.328 3.177-2.109 4.219-.755 1.041-1.64 1.797-2.656 2.265-.989.47-2.174.703-3.554.703-1.016 0-1.953-.13-2.813-.39-.833-.234-1.562-.547-2.187-.938l1.133-3.867a4.51 4.51 0 001.562.82c.547.183 1.172.274 1.875.274.729 0 1.354-.156 1.875-.469.547-.312 1.002-.937 1.367-1.874l.664-1.68-2.148-5.078L137.6 9.348h5.938l3.71 11.718 1.016 3.906 1.211-4.14 3.554-11.484h5.43z" fill="#373737"/></svg>