<svg width="684" height="352" fill="none" xmlns="http://www.w3.org/2000/svg"><g clip-path="url(#clip0)"><path d="M213.858 43.743a4.93 4.93 0 004.934-4.924 4.93 4.93 0 00-4.934-4.924 4.929 4.929 0 00-4.933 4.924 4.929 4.929 0 004.933 4.924zM194.198 43.743a4.928 4.928 0 004.933-4.924 4.928 4.928 0 00-4.933-4.924 4.929 4.929 0 00-4.933 4.924 4.929 4.929 0 004.933 4.924zM174.538 43.743a4.929 4.929 0 004.933-4.924 4.929 4.929 0 00-4.933-4.924 4.928 4.928 0 00-4.933 4.924 4.928 4.928 0 004.933 4.924zM154.877 43.743a4.93 4.93 0 004.934-4.924 4.93 4.93 0 00-4.934-4.924 4.929 4.929 0 00-4.933 4.924 4.929 4.929 0 004.933 4.924zM213.858 64.303a4.93 4.93 0 004.934-4.924 4.93 4.93 0 00-4.934-4.925 4.929 4.929 0 00-4.933 4.925 4.929 4.929 0 004.933 4.924zM194.198 64.303a4.928 4.928 0 004.933-4.924 4.928 4.928 0 00-4.933-4.925 4.929 4.929 0 00-4.933 4.925 4.929 4.929 0 004.933 4.924zM174.538 64.303a4.929 4.929 0 004.933-4.924 4.929 4.929 0 00-4.933-4.925 4.928 4.928 0 00-4.933 4.925 4.928 4.928 0 004.933 4.924zM154.877 64.303a4.93 4.93 0 004.934-4.924 4.93 4.93 0 00-4.934-4.925 4.929 4.929 0 00-4.933 4.925 4.929 4.929 0 004.933 4.924zM213.858 84.862a4.93 4.93 0 004.934-4.924 4.93 4.93 0 00-4.934-4.924 4.929 4.929 0 00-4.933 4.924 4.929 4.929 0 004.933 4.924zM194.198 84.862a4.928 4.928 0 004.933-4.924 4.928 4.928 0 00-4.933-4.924 4.929 4.929 0 00-4.933 4.924 4.929 4.929 0 004.933 4.924zM174.538 84.862a4.929 4.929 0 004.933-4.924 4.929 4.929 0 00-4.933-4.924 4.928 4.928 0 00-4.933 4.924 4.928 4.928 0 004.933 4.924zM154.877 84.862a4.93 4.93 0 004.934-4.924 4.93 4.93 0 00-4.934-4.924 4.929 4.929 0 00-4.933 4.924 4.929 4.929 0 004.933 4.924zM213.858 105.422a4.93 4.93 0 004.934-4.925 4.93 4.93 0 00-4.934-4.924 4.929 4.929 0 00-4.933 4.924 4.93 4.93 0 004.933 4.925zM194.198 105.422a4.929 4.929 0 004.933-4.925 4.928 4.928 0 00-4.933-4.924 4.929 4.929 0 00-4.933 4.924 4.93 4.93 0 004.933 4.925zM174.538 105.422a4.93 4.93 0 004.933-4.925 4.929 4.929 0 00-4.933-4.924 4.928 4.928 0 00-4.933 4.924 4.929 4.929 0 004.933 4.925zM154.877 105.422a4.93 4.93 0 004.934-4.925 4.93 4.93 0 00-4.934-4.924 4.929 4.929 0 00-4.933 4.924 4.93 4.93 0 004.933 4.925zM213.858 125.981a4.93 4.93 0 004.934-4.924 4.93 4.93 0 00-4.934-4.925 4.93 4.93 0 00-4.933 4.925 4.93 4.93 0 004.933 4.924zM194.198 125.981a4.928 4.928 0 004.933-4.924 4.929 4.929 0 00-4.933-4.925 4.93 4.93 0 00-4.933 4.925 4.93 4.93 0 004.933 4.924zM174.538 125.981a4.93 4.93 0 004.933-4.924 4.93 4.93 0 00-4.933-4.925 4.929 4.929 0 00-4.933 4.925 4.928 4.928 0 004.933 4.924zM154.877 125.981a4.93 4.93 0 004.934-4.924 4.93 4.93 0 00-4.934-4.925 4.93 4.93 0 00-4.933 4.925 4.93 4.93 0 004.933 4.924zM213.858 146.54a4.929 4.929 0 004.934-4.924 4.929 4.929 0 00-4.934-4.924 4.928 4.928 0 00-4.933 4.924 4.928 4.928 0 004.933 4.924zM194.198 146.54a4.928 4.928 0 004.933-4.924 4.928 4.928 0 00-4.933-4.924 4.928 4.928 0 00-4.933 4.924 4.928 4.928 0 004.933 4.924zM174.538 146.54a4.928 4.928 0 004.933-4.924 4.928 4.928 0 00-4.933-4.924 4.928 4.928 0 00-4.933 4.924 4.928 4.928 0 004.933 4.924zM154.877 146.54a4.929 4.929 0 004.934-4.924 4.929 4.929 0 00-4.934-4.924 4.928 4.928 0 00-4.933 4.924 4.928 4.928 0 004.933 4.924z" fill="#F2F2F2"/><path d="M170.511 275.952v1.523a9.522 9.522 0 002.795 6.728 9.554 9.554 0 006.74 2.79H248.7a9.545 9.545 0 006.741-2.789 9.513 9.513 0 002.794-6.729v-1.523a9.441 9.441 0 00-2.212-6.092 9.799 9.799 0 00-1.61-1.523s-37.744-.853-37.744-1.903h-36.623a9.555 9.555 0 00-6.738 2.791 9.526 9.526 0 00-2.797 6.727z" fill="#CCC"/><path d="M219.884 286.615h-9.917v63.962h9.917v-63.962z" fill="#CCC"/><path d="M248.108 350.23c0 1.069-15.027.413-33.564.413s-33.564.656-33.564-.413c0-1.07 15.027-9.552 33.564-9.552s33.564 8.482 33.564 9.552z" fill="#CCC"/><path d="M234.474 274.66a8.165 8.165 0 00-.148-9.968 8.196 8.196 0 00-2.756-2.235l-21.018-71.49-16.005 7.825 25.693 67.811a8.212 8.212 0 00-.202 5.84 8.224 8.224 0 003.734 4.5 8.25 8.25 0 0010.702-2.283z" fill="#A0616A"/><path d="M215.314 202.906l-17.913 4.84a3.688 3.688 0 01-3.019-.502 3.666 3.666 0 01-1.591-2.609l-2.165-18.341a10.17 10.17 0 011.037-7.714 10.203 10.203 0 016.191-4.732 10.223 10.223 0 017.73 1.013 10.193 10.193 0 014.758 6.167l7.379 16.871a3.657 3.657 0 01-.055 3.054 3.674 3.674 0 01-2.352 1.953z" fill="#FF5300"/><path d="M239.156 342.733l9.352-.001 4.449-24.211h-13.803l.002 24.212z" fill="#A0616A"/><path d="M236.77 339.685l18.417-.001h.001a11.755 11.755 0 018.299 3.431 11.697 11.697 0 013.438 8.285v.381l-30.154.001-.001-12.097zM250.011 329.749c-.109 0-.219-.005-.328-.016l-12.943-.94a3.427 3.427 0 01-2.906-4.591l17.321-38.846a2.649 2.649 0 00-.149-2.131 2.638 2.638 0 00-1.687-1.34c-8.145-2.125-29.042-7.784-47.132-14.405-7.75-2.837-12.631-6.937-14.508-12.185-2.474-6.919 1.186-13.229 1.343-13.494l.123-.208 17.022 1.545 18.453 1.567 40.44 21.646a15.3 15.3 0 017.209 8.504 15.267 15.267 0 01-.482 11.13l-18.644 41.733a3.429 3.429 0 01-3.132 2.031z" fill="#2F2E41"/><path d="M209.127 166.285c10.347 0 18.735-8.374 18.735-18.703 0-10.328-8.388-18.702-18.735-18.702-10.348 0-18.736 8.374-18.736 18.702 0 10.329 8.388 18.703 18.736 18.703zM233.816 341.971l9.352-.001 4.45-24.211h-13.804l.002 24.212z" fill="#A0616A"/><path d="M231.43 338.923l18.418-.001a11.751 11.751 0 018.3 3.432 11.71 11.71 0 013.437 8.284v.381l-30.154.001-.001-12.097zM244.671 332.034c-.109 0-.218-.006-.328-.016l-12.943-.941a3.43 3.43 0 01-3.096-3.049 3.43 3.43 0 01.191-1.542l17.321-38.845a2.673 2.673 0 00-.85-2.982 2.613 2.613 0 00-.987-.489c-8.145-2.126-29.042-7.785-47.132-14.406-7.75-2.837-12.631-6.936-14.507-12.185-2.474-6.919 1.185-13.229 1.342-13.494l.123-.207 17.022 1.544 18.454 1.567 40.439 21.646a15.302 15.302 0 017.209 8.504 15.266 15.266 0 01-.482 11.13l-18.644 41.734a3.42 3.42 0 01-1.265 1.478 3.444 3.444 0 01-1.867.553z" fill="#2F2E41"/><path d="M214.905 176.89l-19.833-6.854s-12.451 9.549-6.47 33.237a58.546 58.546 0 01-2.593 36.794 37.86 37.86 0 01-1.998 4.211s22.122 26.651 42.718 6.854l-8.01-38.454s12.587-25.509-3.814-35.788zM211.453 166.921c-2.667-3.984-4.771-9.509-1.835-13.3 2.898-3.742 8.614-3.19 13.052-4.846 6.182-2.306 9.767-9.556 8.649-16.048-1.118-6.493-6.339-11.875-12.559-14.077-6.22-2.202-13.234-1.486-19.325 1.05-7.497 3.122-13.929 9.16-16.627 16.81-2.697 7.65-1.255 16.834 4.34 22.714 5.999 6.304 15.413 7.983 24.123 7.882" fill="#2F2E41"/><path d="M194.025 132.935c-3.36 2.73-8.487 1.518-12.094-.879-3.606-2.396-6.533-5.808-10.436-7.687-6.88-3.312-15.198-1.111-21.894 2.558-6.696 3.669-12.631 8.738-19.704 11.617-7.073 2.88-16.099 3.022-21.454-2.415a19.563 19.563 0 00-.309 11.812 19.59 19.59 0 006.551 9.841 19.652 19.652 0 0022.523 1.474c7.75-4.712 12.031-14.592 20.723-17.193 4.81-1.44 9.975-.28 14.836.975 4.862 1.256 9.931 2.612 14.836 1.543 4.906-1.068 9.495-5.469 8.871-10.443l-2.449-1.203z" fill="#2F2E41"/><path d="M255.015 309.157a127.313 127.313 0 010-38.816 3.287 3.287 0 013.232-2.746h30.416a3.249 3.249 0 012.559 1.239 3.283 3.283 0 01.616 2.821 77.785 77.785 0 000 36.188 3.292 3.292 0 01-.616 2.821 3.235 3.235 0 01-2.559 1.238h-30.416a3.28 3.28 0 01-3.232-2.745z" fill="#FF5300"/><path d="M279.303 286.386h-15.961a2.288 2.288 0 01-2.289-2.285v-.892a2.288 2.288 0 012.289-2.285h15.961a2.296 2.296 0 011.617.67c.429.429.671 1.009.671 1.615v.892c0 .606-.242 1.186-.671 1.615a2.296 2.296 0 01-1.617.67zM279.303 295.786h-15.961a2.288 2.288 0 01-2.289-2.285v-.893a2.286 2.286 0 012.289-2.284h15.961a2.296 2.296 0 011.617.67c.429.428.671 1.009.671 1.614v.893c0 .606-.242 1.186-.671 1.615a2.296 2.296 0 01-1.617.67z" fill="#fff"/><path d="M263.013 271.234a8.163 8.163 0 00-.339-6.913 8.204 8.204 0 00-5.527-4.179l-38.244-63.981-13.539 11.568 41.85 59.253a8.212 8.212 0 001.266 5.705 8.253 8.253 0 0010.566 2.844 8.227 8.227 0 003.967-4.297z" fill="#A0616A"/><path d="M226.501 206.534l-16.133 9.154a3.67 3.67 0 01-3.048.267 3.677 3.677 0 01-2.194-2.13l-6.687-17.22a10.17 10.17 0 01-.926-7.727 10.189 10.189 0 014.81-6.126 10.225 10.225 0 017.739-.947c2.603.72 4.815 2.44 6.15 4.785l11.367 14.495c.326.415.558.895.68 1.408a3.66 3.66 0 01-1.758 4.041z" fill="#2F2E41"/><path d="M398.166 229.008H88.462a4.963 4.963 0 00-3.506 1.449 4.945 4.945 0 000 7 4.964 4.964 0 003.506 1.45h8.772v107.746c0 1.313.523 2.572 1.453 3.5a4.964 4.964 0 007.012 0 4.944 4.944 0 001.452-3.5v-98.236l55.587 100.572a4.965 4.965 0 006.769 1.803 4.95 4.95 0 002.308-3 4.935 4.935 0 00-.489-3.752l-58.108-105.133h265.496v.064L320.642 344.04a4.939 4.939 0 001.814 6.76 4.963 4.963 0 006.773-1.811l49.485-89.531v87.195c0 1.313.523 2.572 1.452 3.5a4.963 4.963 0 007.013 0 4.948 4.948 0 001.452-3.5V241.517l1.442-2.61h8.093a4.964 4.964 0 003.506-1.45 4.944 4.944 0 000-7 4.963 4.963 0 00-3.506-1.449z" fill="#3F3D56"/><path d="M270.013 225.962H209.75a2.667 2.667 0 00-2.67 2.665 2.667 2.667 0 002.67 2.665h60.263a2.667 2.667 0 002.669-2.665 2.667 2.667 0 00-2.669-2.665z" fill="#CCC"/><path d="M310.442 231.292h-67.891a4.965 4.965 0 01-3.504-1.451 4.947 4.947 0 01-1.454-3.498v-37.312a4.947 4.947 0 011.454-3.498 4.965 4.965 0 013.504-1.451h67.891a4.965 4.965 0 013.504 1.451 4.947 4.947 0 011.454 3.498v37.312a4.947 4.947 0 01-1.454 3.498 4.965 4.965 0 01-3.504 1.451z" fill="#CCC"/><path d="M276.496 212.256a4.573 4.573 0 004.577-4.569 4.573 4.573 0 00-4.577-4.569 4.573 4.573 0 00-4.576 4.569 4.573 4.573 0 004.576 4.569z" fill="#fff"/><path d="M362.253 139.363V5.727a5.732 5.732 0 011.682-4.048A5.75 5.75 0 01367.991 0h105.824a5.748 5.748 0 014.055 1.68 5.729 5.729 0 011.683 4.047v133.636a5.73 5.73 0 01-1.683 4.048 5.748 5.748 0 01-4.055 1.679H367.991a5.734 5.734 0 01-5.738-5.727zm5.738-138.09a4.469 4.469 0 00-3.154 1.306 4.453 4.453 0 00-1.309 3.148v133.636a4.468 4.468 0 004.463 4.454h105.824a4.47 4.47 0 003.154-1.306 4.456 4.456 0 001.309-3.148V5.727a4.457 4.457 0 00-1.309-3.148 4.47 4.47 0 00-3.154-1.306H367.991z" fill="#E6E6E6"/><path d="M426.837 61.372v-27.44c.001-.76.303-1.487.841-2.024a2.875 2.875 0 012.028-.84H453a2.868 2.868 0 012.869 2.864v27.44A2.868 2.868 0 01453 64.235h-23.294c-.761 0-1.49-.303-2.028-.84a2.864 2.864 0 01-.841-2.023z" fill="#FF5300"/><path d="M381.575 74.099v-27.44c.001-.759.303-1.487.841-2.024a2.875 2.875 0 012.028-.84h23.294c.76.002 1.489.303 2.027.84a2.86 2.86 0 01.841 2.024V74.1a2.86 2.86 0 01-.841 2.024 2.875 2.875 0 01-2.027.84h-23.294c-.761-.001-1.49-.303-2.028-.84a2.864 2.864 0 01-.841-2.024z" fill="#CCC"/><path d="M417.912 112.917v-27.44a2.868 2.868 0 012.869-2.863h23.294a2.868 2.868 0 012.869 2.864v27.439a2.869 2.869 0 01-2.869 2.863h-23.294a2.87 2.87 0 01-2.869-2.863z" fill="#FF6584"/><path d="M595.563 13.925A4.928 4.928 0 00600.496 9a4.928 4.928 0 00-4.933-4.925 4.929 4.929 0 00-4.933 4.925 4.929 4.929 0 004.933 4.924zM595.563 33.55a4.928 4.928 0 004.933-4.924 4.928 4.928 0 00-4.933-4.924 4.929 4.929 0 00-4.933 4.924 4.929 4.929 0 004.933 4.924zM595.563 53.175a4.928 4.928 0 004.933-4.924 4.928 4.928 0 00-4.933-4.924 4.929 4.929 0 00-4.933 4.924 4.929 4.929 0 004.933 4.924zM595.563 72.8a4.928 4.928 0 004.933-4.924 4.928 4.928 0 00-4.933-4.924 4.929 4.929 0 00-4.933 4.924 4.929 4.929 0 004.933 4.925zM574.967 13.925A4.928 4.928 0 00579.9 9a4.928 4.928 0 00-4.933-4.925 4.929 4.929 0 00-4.933 4.925 4.929 4.929 0 004.933 4.924zM574.967 33.55a4.928 4.928 0 004.933-4.924 4.928 4.928 0 00-4.933-4.924 4.929 4.929 0 00-4.933 4.924 4.929 4.929 0 004.933 4.924zM574.967 53.175a4.928 4.928 0 004.933-4.924 4.928 4.928 0 00-4.933-4.924 4.929 4.929 0 00-4.933 4.924 4.929 4.929 0 004.933 4.924zM574.967 72.8a4.928 4.928 0 004.933-4.924 4.928 4.928 0 00-4.933-4.924 4.929 4.929 0 00-4.933 4.924 4.929 4.929 0 004.933 4.925zM554.371 13.925A4.928 4.928 0 00559.304 9a4.928 4.928 0 00-4.933-4.925 4.929 4.929 0 00-4.933 4.925 4.929 4.929 0 004.933 4.924zM554.371 33.55a4.928 4.928 0 004.933-4.924 4.928 4.928 0 00-4.933-4.924 4.929 4.929 0 00-4.933 4.924 4.929 4.929 0 004.933 4.924zM554.371 53.175a4.928 4.928 0 004.933-4.924 4.928 4.928 0 00-4.933-4.924 4.929 4.929 0 00-4.933 4.924 4.929 4.929 0 004.933 4.924zM554.371 72.8a4.928 4.928 0 004.933-4.924 4.928 4.928 0 00-4.933-4.924 4.929 4.929 0 00-4.933 4.924 4.929 4.929 0 004.933 4.925zM533.775 13.925A4.928 4.928 0 00538.708 9a4.928 4.928 0 00-4.933-4.925 4.929 4.929 0 00-4.933 4.925 4.929 4.929 0 004.933 4.924zM533.775 33.55a4.928 4.928 0 004.933-4.924 4.928 4.928 0 00-4.933-4.924 4.929 4.929 0 00-4.933 4.924 4.929 4.929 0 004.933 4.924zM533.775 53.175a4.928 4.928 0 004.933-4.924 4.928 4.928 0 00-4.933-4.924 4.929 4.929 0 00-4.933 4.924 4.929 4.929 0 004.933 4.924zM533.775 72.8a4.928 4.928 0 004.933-4.924 4.928 4.928 0 00-4.933-4.924 4.929 4.929 0 00-4.933 4.924 4.929 4.929 0 004.933 4.925zM513.179 13.925A4.929 4.929 0 00518.112 9a4.929 4.929 0 00-4.933-4.925 4.929 4.929 0 00-4.933 4.925 4.929 4.929 0 004.933 4.924zM513.179 33.55a4.929 4.929 0 004.933-4.924 4.929 4.929 0 00-4.933-4.924 4.929 4.929 0 00-4.933 4.924 4.929 4.929 0 004.933 4.924zM513.179 53.175a4.929 4.929 0 004.933-4.924 4.929 4.929 0 00-4.933-4.924 4.929 4.929 0 00-4.933 4.924 4.929 4.929 0 004.933 4.924zM513.179 72.8a4.929 4.929 0 004.933-4.924 4.929 4.929 0 00-4.933-4.924 4.929 4.929 0 00-4.933 4.924 4.929 4.929 0 004.933 4.925zM492.583 13.925A4.929 4.929 0 00497.516 9a4.929 4.929 0 00-4.933-4.925 4.928 4.928 0 00-4.933 4.925 4.928 4.928 0 004.933 4.924zM492.583 33.55a4.929 4.929 0 004.933-4.924 4.929 4.929 0 00-4.933-4.924 4.928 4.928 0 00-4.933 4.924 4.928 4.928 0 004.933 4.924zM492.583 53.175a4.929 4.929 0 004.933-4.924 4.929 4.929 0 00-4.933-4.924 4.928 4.928 0 00-4.933 4.924 4.928 4.928 0 004.933 4.924zM492.583 72.8a4.929 4.929 0 004.933-4.924 4.929 4.929 0 00-4.933-4.924 4.928 4.928 0 00-4.933 4.924 4.928 4.928 0 004.933 4.925z" fill="#F2F2F2"/><path d="M512.457 183.703a8.372 8.372 0 015.925-11.013 8.004 8.004 0 011.107-.18l18.539-32.437-4.681-8.028 11.652-8.973 8.915 12.359a8.48 8.48 0 01-.198 10.134l-25.452 32.525c.093.259.172.522.237.788a8.366 8.366 0 01-1.265 6.732 8.388 8.388 0 01-5.875 3.54c-.34.043-.683.064-1.027.064a8.418 8.418 0 01-7.877-5.511zM476.288 343.332l-9.352-.001-4.449-36.008 13.803.001-.002 36.008z" fill="#FFB8B8"/><path d="M460.256 340.664h18.036v11.335H448.9a11.318 11.318 0 013.326-8.015 11.353 11.353 0 018.03-3.32z" fill="#2F2E41"/><path d="M553.333 343.332l-9.352-.001-4.449-36.008 13.802.001-.001 36.008z" fill="#FFB8B8"/><path d="M537.301 340.664h18.036v11.335h-29.392a11.327 11.327 0 013.326-8.015 11.37 11.37 0 018.03-3.32z" fill="#2F2E41"/><path d="M547.593 124.825l-20.996 7.964-5.127-14.214a8.489 8.489 0 01.028-5.835 8.508 8.508 0 013.788-4.444 8.54 8.54 0 015.833-.948 8.523 8.523 0 015.047 3.068l11.427 14.409z" fill="#FF5300"/><path d="M477.096 314.168l-17.61-4.009a3.806 3.806 0 01-2.296-1.569 3.79 3.79 0 01-.611-2.71c7.065-44.704 13.863-70.884 31.382-104.131.245-.62 2.98-13.202 4.765-21.538a3.783 3.783 0 01.886-2.516 3.796 3.796 0 012.329-1.309l32.835-5.044a4.253 4.253 0 011.542-.232l.328.062-.004.322c-.004.334-.336.384-.461.404l-.437.067a5.09 5.09 0 011.354.918c14.387 17.273 21.868 73.892 31.369 136.442a3.403 3.403 0 01-.994 2.777 3.769 3.769 0 01-2.699 1.219l-20.978.51a3.802 3.802 0 01-2.526-.884 3.79 3.79 0 01-1.315-2.328l-14.13-81.513a3.026 3.026 0 00-2.535-2.534 3.035 3.035 0 00-3.182 1.654c-11.4 23.175-22.031 43.217-32.501 83.202a3.776 3.776 0 01-4.511 2.74z" fill="#2F2E41"/><path d="M494.188 181.142a3.804 3.804 0 01-1.589-2.702c-2.689-25.059-.816-44.67 5.726-59.953a19.036 19.036 0 015.076-6.847 19.072 19.072 0 017.561-3.95l16.972-.856.088.043a19.813 19.813 0 018.907 8.711 19.772 19.772 0 011.94 12.296c-5.459 14.364-10.03 29.319-6.544 41.383a3.883 3.883 0 01-.369 3.033 3.718 3.718 0 01-2.377 1.758l-32.327 7.676a3.783 3.783 0 01-3.064-.592z" fill="#FF5300"/><path d="M486.882 145.181l-32.552-25.636c-.26.091-.524.169-.791.233a8.427 8.427 0 01-9.128-3.852 8.38 8.38 0 01.077-8.711 8.402 8.402 0 014.295-3.475 8.403 8.403 0 019.505 2.802 8.355 8.355 0 011.499 3.165c.084.364.143.734.175 1.106l32.406 18.661 8.064-4.634 8.933 11.675-12.521 8.908a8.36 8.36 0 01-9.962-.242z" fill="#FFB8B8"/><path d="M513.338 140.15l-18.574-12.608 8.729-12.34a8.517 8.517 0 014.805-3.323 8.536 8.536 0 015.82.551 8.507 8.507 0 014.121 4.227 8.486 8.486 0 01.375 5.887l-5.276 17.606z" fill="#FF5300"/><path d="M522.27 100.507c10.348 0 18.736-8.374 18.736-18.703 0-10.329-8.388-18.702-18.736-18.702-10.347 0-18.735 8.373-18.735 18.702 0 10.33 8.388 18.703 18.735 18.703z" fill="#FFB8B8"/><path d="M515.401 79.019c-4.815 3.29-11.138 6.671-16.056 3.168-3.23-2.3-4.247-6.56-2.938-10.299 2.355-6.722 8.826-9.682 15.013-11.95 8.043-2.95 16.802-5.296 25.105-3.184 8.304 2.113 15.642 10.138 14.143 18.56-1.205 6.772-7.605 12.407-6.697 19.226.915 6.862 8.646 10.474 15.472 11.701 6.825 1.226 14.463 1.62 19.368 6.514 6.257 6.243 4.695 17.402-1.193 23.993-5.888 6.592-14.773 9.58-23.383 11.611-11.408 2.691-23.746 4.105-34.58-.361-10.835-4.466-19.266-16.489-16.127-27.763 1.325-4.762 4.448-8.786 7.466-12.704 3.019-3.918 6.075-8.015 7.226-12.822.96-4.006.249-8.657-2.412-11.662a3.38 3.38 0 01-.453-3.949l.046-.08z" fill="#2F2E41"/></g><defs><clipPath id="clip0"><path fill="#fff" d="M0 0h684v352H0z"/></clipPath></defs></svg>