<svg width="639" height="429" fill="none" xmlns="http://www.w3.org/2000/svg"><g clip-path="url(#clip0)"><path d="M509.048 189.851l1.897-15.236a20.583 20.583 0 017.765-13.691 20.497 20.497 0 0115.15-4.179 20.524 20.524 0 0113.662 7.781 20.608 20.608 0 014.17 15.183l-1.897 15.237a2.767 2.767 0 01-1.044 1.838 2.755 2.755 0 01-2.034.562l-35.273-4.41a2.76 2.76 0 01-1.835-1.046 2.774 2.774 0 01-.561-2.039z" fill="#2F2E41"/><path d="M525.945 194.397c8.313 0 15.052-6.754 15.052-15.085 0-8.331-6.739-15.085-15.052-15.085-8.314 0-15.053 6.754-15.053 15.085 0 8.331 6.739 15.085 15.053 15.085z" fill="#FFB8B8"/><path d="M505.973 175.231a16.305 16.305 0 016.147-10.824 16.238 16.238 0 0111.98-3.312l3.041.381a16.25 16.25 0 0110.801 6.159 16.32 16.32 0 013.305 12.006l-.038.305-6.426-.803-1.426-6.425-1.204 6.096-3.322-.416-.719-3.241-.608 3.076-21.568-2.697.037-.305z" fill="#2F2E41"/><path d="M452.321 233.123a6.939 6.939 0 004.625 3.619 6.93 6.93 0 005.737-1.231l13.672 8.027 6.894-7.137-19.467-11.063a6.963 6.963 0 00-9.181-1.209 6.988 6.988 0 00-2.845 4.063 7.002 7.002 0 00.565 4.931z" fill="#FFB8B8"/><path d="M497.131 247.546c-10.084 0-27.831-4.525-28.813-4.777l-.311-.08 2.793-14.172 27.106 5.366 14.726-20.781 16.906-1.722-.472.622c-.22.29-22.013 29.04-25.405 33.862-.855 1.217-3.3 1.682-6.53 1.682z" fill="#3F3D56"/><path d="M499.835 300.735l-.403-.193c-.086-.042-8.655-4.218-13.093-12.372-4.416-8.115 16.26-42.538 17.706-44.927l.021-10.932 7.438-20.125 9.486-5.373-8.144 19.044-13.011 74.878z" fill="#3F3D56"/><path d="M490.332 418.233l-9.065-.001-4.314-35.043 13.38.001-.001 35.043z" fill="#FFB8B8"/><path d="M492.644 427.039l-29.232-.001v-.37c0-3.024 1.199-5.924 3.333-8.063a11.367 11.367 0 018.045-3.339h17.855l-.001 11.773z" fill="#2F2E41"/><path d="M587.709 410.271l-8.615 2.828-14.987-31.954 12.715-4.175 10.887 33.301z" fill="#FFB8B8"/><path d="M592.642 417.918l-27.778 9.121-.115-.352a11.422 11.422 0 01.661-8.701 11.388 11.388 0 016.608-5.685l16.967-5.57 3.657 11.187zM570.156 404.542l-25.844-43.238-21.816-46.194-19.633 40.805-7.799 52.849-27.35.381.108-.429 41.855-166.664 32.78 4.908-1.492 21.684.888 1.266c7.405 10.542 15.062 21.442 10.67 33.191l12.449 37.043 27.556 61.68-22.372 2.718z" fill="#2F2E41"/><path d="M511.174 278.173c-4.75 0-10.169-5.435-7.357-14.714l-.182-.133 6.752-29.898c-5.893-8.447 1.877-15.417 2.605-16.04l3.709-6.69 16.364-10.4 8.28 68.941-.123.118c-5.98 5.734-26.063 8.816-30.048 8.816z" fill="#FF5300"/><path d="M544.688 293.73a8.05 8.05 0 01-1.933-.205c-.637-.16-1.667-.972-3.259-6.167-6.33-20.652-13.803-82.792-8.374-88.873l.125-.139 8.914 1.488c.741-.548 4.63-3.268 8.218-2.795a5.433 5.433 0 013.726 2.208l.062.08 2.839 40.488 10.404 47.647-.249.114c-.605.276-13.597 6.154-20.473 6.154z" fill="#3F3D56"/><path d="M538.692 277.905a6.945 6.945 0 006.551-8.393l13.05-9.007-3.528-9.282-18.25 12.979a6.971 6.971 0 00-3.975 2.961 6.996 6.996 0 001.456 9.165 6.962 6.962 0 004.696 1.577z" fill="#FFB8B8"/><path d="M553.987 267.722l-11.624-8.542 16.339-22.328-12.539-22.175 5.61-16.075.363.692c.168.323 16.913 32.29 19.834 37.413 3.039 5.329-16.928 29.731-17.78 30.767l-.203.248z" fill="#3F3D56"/><path d="M292.522 368.218l-9.893-4.175-6.787-49.699h-90.373l-7.356 49.496-8.851 4.435a2.106 2.106 0 00.94 3.99h121.504a2.1 2.1 0 002.061-1.689 2.11 2.11 0 00-1.245-2.358z" fill="#E6E6E6"/><path d="M453.122 320.956H9.181a8.786 8.786 0 01-6.207-2.588 8.825 8.825 0 01-2.569-6.226v-62.735h461.493v62.735a8.823 8.823 0 01-2.569 6.226 8.786 8.786 0 01-6.207 2.588z" fill="#CCC"/><path d="M462.362 279.057H0V10.625a10.65 10.65 0 013.11-7.51A10.603 10.603 0 0110.602 0h441.156a10.604 10.604 0 017.494 3.115 10.647 10.647 0 013.109 7.51v268.432z" fill="#3F3D56"/><path d="M434.747 259.574H27.615a8.175 8.175 0 01-5.777-2.401 8.21 8.21 0 01-2.397-5.79V27.674a8.21 8.21 0 012.397-5.79 8.175 8.175 0 015.777-2.402h407.132a8.174 8.174 0 015.777 2.402 8.206 8.206 0 012.397 5.79v223.709a8.207 8.207 0 01-2.397 5.79 8.174 8.174 0 01-5.777 2.401z" fill="#fff"/><path d="M345.361 372.784H116.588a1.062 1.062 0 01-1.043-.771 1.036 1.036 0 011.001-1.303h228.731a1.094 1.094 0 011.095.811 1.035 1.035 0 01-1.011 1.263z" fill="#CCC"/><path d="M430.4 55.65h-98.3v75.259h98.3v-75.26z" fill="#F2F2F2"/><path d="M425.516 59.389h-88.531v67.78h88.531v-67.78z" fill="#fff"/><path d="M382.805 109.665l.035-.001a23.58 23.58 0 0015.797-7.243 23.68 23.68 0 006.573-16.114 23.686 23.686 0 00-6.211-16.258 23.584 23.584 0 00-15.631-7.596.534.534 0 00-.407.142.54.54 0 00-.174.391l-.516 46.133a.541.541 0 00.534.546z" fill="#3F3D56"/><path d="M364.294 70.082a.692.692 0 01.487.209l15.848 16.241a.689.689 0 01.197.493l-.247 22.075a.682.682 0 01-.224.502.697.697 0 01-.522.182 23.721 23.721 0 01-12.206-4.491 23.797 23.797 0 01-8.019-10.258 23.853 23.853 0 014.158-24.718.696.696 0 01.502-.235h.026z" fill="#E6E6E6"/><path d="M380.408 62.265a.695.695 0 01.687.702l-.222 19.917a.698.698 0 01-.835.67.693.693 0 01-.352-.193L365.857 69.19a.693.693 0 01.037-1.007 23.782 23.782 0 0114.514-5.917zM373.284 119.231a4.251 4.251 0 01-2.661 3.896 4.23 4.23 0 01-4.609-.973 4.25 4.25 0 01-.867-4.64 4.242 4.242 0 013.945-2.579 4.253 4.253 0 014.192 4.296z" fill="#FF5300"/><path d="M385.396 119.367a4.251 4.251 0 01-2.661 3.896 4.23 4.23 0 01-4.609-.973 4.25 4.25 0 01-.867-4.64 4.242 4.242 0 013.946-2.579 4.253 4.253 0 014.191 4.296z" fill="#3F3D56"/><path d="M397.509 119.504a4.247 4.247 0 01-2.661 3.895 4.232 4.232 0 01-4.61-.973 4.258 4.258 0 01-.867-4.64 4.238 4.238 0 013.946-2.578 4.237 4.237 0 012.982 1.279 4.259 4.259 0 011.21 3.017z" fill="#E6E6E6"/><path d="M429.366 142.753h-98.3v75.26h98.3v-75.26z" fill="#F2F2F2"/><path d="M424.481 146.493H335.95v67.78h88.531v-67.78z" fill="#fff"/><path d="M350.971 168.77a3.68 3.68 0 003.676-3.684 3.68 3.68 0 00-3.676-3.683 3.68 3.68 0 00-3.676 3.683 3.68 3.68 0 003.676 3.684zM410.033 162.22a2.487 2.487 0 012.306 1.541 2.492 2.492 0 010 1.914 2.491 2.491 0 01-2.306 1.541h-38.661a2.49 2.49 0 01-1.763-.732 2.502 2.502 0 010-3.533 2.493 2.493 0 011.763-.731h38.661zm0-.612h-38.661a3.09 3.09 0 00-2.197.909 3.101 3.101 0 00-.911 2.201 3.117 3.117 0 001.919 2.875 3.09 3.09 0 001.189.235h38.661a3.09 3.09 0 002.197-.909 3.101 3.101 0 00.911-2.201 3.117 3.117 0 00-1.919-2.875 3.09 3.09 0 00-1.189-.235z" fill="#3F3D56"/><path d="M394.778 167.828h-29.103a3.103 3.103 0 01-2.195-.911 3.112 3.112 0 012.195-5.309h29.103c.823 0 1.612.327 2.194.911a3.112 3.112 0 01-2.194 5.309z" fill="#FF5300"/><path d="M350.971 184.067a3.68 3.68 0 003.676-3.684 3.68 3.68 0 00-3.676-3.684 3.68 3.68 0 00-3.676 3.684 3.68 3.68 0 003.676 3.684zM410.033 177.516c.327 0 .652.064.955.189a2.506 2.506 0 011.542 2.31c0 .328-.065.653-.19.957a2.503 2.503 0 01-2.307 1.541h-38.661a2.49 2.49 0 01-1.763-.732 2.502 2.502 0 010-3.533 2.494 2.494 0 011.763-.732h38.661zm0-.612h-38.661a3.1 3.1 0 00-2.194.911 3.117 3.117 0 000 4.399 3.1 3.1 0 002.194.911h38.661a3.1 3.1 0 002.194-.911 3.116 3.116 0 000-4.399 3.1 3.1 0 00-2.194-.911z" fill="#3F3D56"/><path d="M405.768 183.125h-40.093a3.103 3.103 0 01-2.195-.911 3.117 3.117 0 010-4.399 3.103 3.103 0 012.195-.911h40.093a3.1 3.1 0 012.194.911 3.116 3.116 0 010 4.399 3.1 3.1 0 01-2.194.911z" fill="#FF5300"/><path d="M350.971 199.363a3.68 3.68 0 003.676-3.683 3.68 3.68 0 00-3.676-3.684 3.68 3.68 0 00-3.676 3.684 3.68 3.68 0 003.676 3.683zM410.033 192.813a2.487 2.487 0 011.765.73 2.51 2.51 0 01.732 1.768 2.51 2.51 0 01-.732 1.768 2.487 2.487 0 01-1.765.73h-38.661a2.493 2.493 0 01-2.493-2.498c0-.662.263-1.298.73-1.766a2.49 2.49 0 011.763-.732h38.661zm0-.612h-38.661a3.1 3.1 0 00-2.194.911 3.112 3.112 0 002.194 5.309h38.661c.823 0 1.612-.327 2.194-.911a3.112 3.112 0 00-2.194-5.309z" fill="#3F3D56"/><path d="M381.956 198.421h-16.281a3.09 3.09 0 01-2.198-.909 3.116 3.116 0 011.009-5.076 3.09 3.09 0 011.189-.235h16.281a3.098 3.098 0 012.192.913 3.112 3.112 0 01-2.192 5.307z" fill="#FF5300"/><path d="M309.336 68.965H34.703v141.05h274.633V68.965z" fill="#F2F2F2"/><path d="M300.182 75.973H43.858v127.033h256.324V75.973z" fill="#fff"/><path d="M268.392 183.626H81.537a.587.587 0 01-.585-.586V93.289a.587.587 0 01.585-.586.584.584 0 01.584.586v89.165h186.271a.586.586 0 010 1.172z" fill="#3F3D56"/><path d="M121.46 177.18h-16.996a1.736 1.736 0 01-1.735-1.74v-23.478a1.738 1.738 0 011.735-1.739h16.996a1.736 1.736 0 011.736 1.739v23.478a1.74 1.74 0 01-1.736 1.74zM152.453 177.18h-16.996a1.744 1.744 0 01-1.736-1.74v-45.747a1.743 1.743 0 011.736-1.739h16.996a1.738 1.738 0 011.735 1.739v45.747a1.738 1.738 0 01-1.735 1.74zM183.446 177.18H166.45a1.74 1.74 0 01-1.736-1.74v-23.478a1.736 1.736 0 011.736-1.739h16.996a1.738 1.738 0 011.735 1.739v23.478a1.738 1.738 0 01-1.735 1.74zM214.438 177.18h-16.995c-.449.01-.885-.16-1.21-.471a1.71 1.71 0 01-.526-1.19v-54.695a1.697 1.697 0 011.736-1.66h16.995a1.7 1.7 0 011.736 1.66v54.695a1.705 1.705 0 01-1.736 1.661zM245.431 177.18h-16.995a1.74 1.74 0 01-1.736-1.74v-70.36a1.74 1.74 0 011.736-1.739h16.995a1.737 1.737 0 011.736 1.739v70.36a1.738 1.738 0 01-1.736 1.74z" fill="#FF5300"/><path d="M112.962 143.191a3.513 3.513 0 003.509-3.517 3.513 3.513 0 00-3.509-3.516 3.513 3.513 0 00-3.509 3.516 3.513 3.513 0 003.509 3.517zM143.955 120.336a3.513 3.513 0 003.509-3.516 3.513 3.513 0 00-3.509-3.517 3.513 3.513 0 00-3.509 3.517 3.513 3.513 0 003.509 3.516zM174.948 143.191a3.513 3.513 0 003.509-3.517 3.513 3.513 0 00-3.509-3.516 3.513 3.513 0 00-3.509 3.516 3.513 3.513 0 003.509 3.517zM205.941 109.201a3.512 3.512 0 003.509-3.516 3.512 3.512 0 00-3.509-3.516 3.512 3.512 0 00-3.509 3.516 3.512 3.512 0 003.509 3.516zM236.934 96.309a3.512 3.512 0 003.508-3.516 3.512 3.512 0 00-3.508-3.517 3.513 3.513 0 00-3.509 3.517 3.513 3.513 0 003.509 3.516z" fill="#3F3D56"/><path d="M175.022 140.462l-31.067-23.319-30.642 23-.701-.937 31.343-23.528 30.919 23.208 30.725-33.694.123-.051 30.993-12.514.437 1.088-30.869 12.464-31.261 34.283z" fill="#3F3D56"/><path d="M638.322 429H380.023a.677.677 0 01-.678-.679.682.682 0 01.678-.68h258.299a.677.677 0 01.678.68.676.676 0 01-.678.679z" fill="#CCC"/></g><defs><clipPath id="clip0"><path fill="#fff" d="M0 0h639v429H0z"/></clipPath></defs></svg>