<svg width="22" height="18" viewBox="0 0 22 18" fill="none" xmlns="http://www.w3.org/2000/svg">
<path d="M21.162 2.656C20.3986 2.9937 19.589 3.21548 18.76 3.314C19.6337 2.79144 20.2877 1.96902 20.6 1C19.78 1.488 18.881 1.83 17.944 2.015C17.3146 1.34158 16.4804 0.894966 15.5709 0.744588C14.6615 0.594209 13.7279 0.748494 12.9153 1.18346C12.1026 1.61842 11.4564 2.30969 11.0771 3.1498C10.6978 3.9899 10.6067 4.93178 10.818 5.829C9.1551 5.74566 7.52832 5.31353 6.04328 4.56067C4.55823 3.80781 3.24812 2.75105 2.19799 1.459C1.82628 2.09745 1.63095 2.82323 1.63199 3.562C1.63199 5.012 2.36999 6.293 3.49199 7.043C2.828 7.0221 2.17862 6.84278 1.59799 6.52V6.572C1.59819 7.5377 1.93236 8.47362 2.54384 9.22106C3.15532 9.96851 4.00647 10.4815 4.95299 10.673C4.33661 10.84 3.6903 10.8647 3.06299 10.745C3.32986 11.5762 3.85 12.3032 4.55058 12.8241C5.25117 13.345 6.09712 13.6338 6.96999 13.65C6.10247 14.3313 5.10917 14.835 4.04687 15.1322C2.98458 15.4294 1.87412 15.5143 0.778992 15.382C2.69069 16.6114 4.91609 17.2641 7.18899 17.262C14.882 17.262 19.089 10.889 19.089 5.362C19.089 5.182 19.084 5 19.076 4.822C19.8949 4.23017 20.6016 3.49702 21.163 2.657L21.162 2.656Z" fill="white"/>
</svg>
